<svg xmlns="http://www.w3.org/2000/svg" viewBox="0 0 243.22 151.92"><defs><style>.cls-1{fill:#cbb64c;}.cls-2{fill:#fff;}</style></defs><g id="Layer_2" data-name="Layer 2"><g id="Style_Guide" data-name="Style Guide"><path class="cls-1" d="M144.88,47.26c-.11-1.24-.17-2.49-.17-3.74s.07-2.51.18-3.74a54.31,54.31,0,0,0,10.12,1,54.46,54.46,0,0,0,10.45-1c-.09-1.09-.22-2.18-.39-3.24a51.23,51.23,0,0,1-10.06,1,50.89,50.89,0,0,1-9.71-.94,40.73,40.73,0,0,1,1.26-5.4,45.33,45.33,0,0,0,8.45.8,45.9,45.9,0,0,0,8.83-.86c-.31-1.06-.66-2.1-1.05-3.13a42.4,42.4,0,0,1-7.78.73,42.39,42.39,0,0,1-7.35-.65,42.37,42.37,0,0,1,7.79-12.67c-.7-.84-1.44-1.65-2.2-2.44a45.77,45.77,0,0,0-8.83,14.42,42.67,42.67,0,0,1-5.26-1.75,51,51,0,0,1,10-16.4c-.85-.68-1.72-1.34-2.62-1.95a54.51,54.51,0,0,0-10.36,17,41.83,41.83,0,0,1-5.82-3.51,54.26,54.26,0,0,0,9.52-17.27c-1-.46-2-.88-3-1.26a51,51,0,0,1-9.07,16.54,43.34,43.34,0,0,1-4-3.86A45.69,45.69,0,0,0,131.54.63C130.47.39,129.4.17,128.31,0a42.18,42.18,0,0,1-6.7,12.34A42.18,42.18,0,0,1,114.91,0c-1.09.17-2.16.39-3.23.63a45.69,45.69,0,0,0,7.79,14.26,43.34,43.34,0,0,1-4,3.86,51,51,0,0,1-9.07-16.54c-1,.38-2,.8-3,1.26a54.26,54.26,0,0,0,9.52,17.27,41.55,41.55,0,0,1-5.8,3.5,54.3,54.3,0,0,0-10.34-17c-.9.62-1.78,1.27-2.63,2a51,51,0,0,1,10,16.42,43,43,0,0,1-5.28,1.75A45.77,45.77,0,0,0,90,12.92c-.76.79-1.5,1.6-2.2,2.44A42.17,42.17,0,0,1,95.56,28a42.39,42.39,0,0,1-7.35.65A42.4,42.4,0,0,1,80.43,28c-.39,1-.74,2.07-1.05,3.13a45.9,45.9,0,0,0,8.83.86,45.33,45.33,0,0,0,8.45-.8,40.73,40.73,0,0,1,1.26,5.4,50.89,50.89,0,0,1-9.71.94,51.23,51.23,0,0,1-10.06-1c-.17,1.06-.3,2.15-.39,3.24a54.46,54.46,0,0,0,10.45,1,54.31,54.31,0,0,0,10.12-1c.11,1.23.18,2.48.18,3.74s-.06,2.5-.17,3.74a53.66,53.66,0,0,0-10.13-1,54.46,54.46,0,0,0-10.45,1c.09,1.1.22,2.18.39,3.25a50.65,50.65,0,0,1,19.78,0,41.57,41.57,0,0,1-1.26,5.38A45.46,45.46,0,0,0,79.38,56q.47,1.59,1.05,3.12a42.26,42.26,0,0,1,33.8,8.2l1.23.93,1-1.16A52.55,52.55,0,0,1,121.61,62q1.14,1,2.22,2c1,1,2,2,2.93,3.09l1,1.16,1.21-.94a42.26,42.26,0,0,1,33.8-8.2q.59-1.53,1.05-3.12a45.46,45.46,0,0,0-17.29-.08,41.57,41.57,0,0,1-1.26-5.38,50.65,50.65,0,0,1,19.78,0c.17-1.07.3-2.15.39-3.25a54.46,54.46,0,0,0-10.45-1A53.66,53.66,0,0,0,144.88,47.26Zm-3.21.7c-1.82.47-3.63,1-5.4,1.67a51.78,51.78,0,0,1-.36-6.11,51.27,51.27,0,0,1,.38-6.11,55.8,55.8,0,0,0,5.38,1.67c-.14,1.46-.22,2.94-.22,4.44S141.53,46.49,141.67,48Zm-20.06,9.79a53.93,53.93,0,0,0-11.54-6.86,54.86,54.86,0,0,0,.5-7.37c0-1.84-.1-3.69-.28-5.52a65.61,65.61,0,0,1,16.6,9.89c1.46,1.19,2.88,2.45,4.22,3.75l.13.13A54.46,54.46,0,0,0,121.61,57.75Zm11.31-8.88c-1.28-1.21-2.6-2.4-4-3.51A68.88,68.88,0,0,0,112.1,35.22a55.1,55.1,0,0,0,9.51-5.92,54,54,0,0,0,11.55,6.86,54.15,54.15,0,0,0-.51,7.36C132.65,45.31,132.75,47.1,132.92,48.87Zm10.45-18.44a48.52,48.52,0,0,0-1.26,5.39,49.9,49.9,0,0,1-5.32-1.71,49.4,49.4,0,0,1,1.32-5.43A43.24,43.24,0,0,0,143.37,30.43ZM121.61,17.36a45.76,45.76,0,0,0,13.49,10,52.76,52.76,0,0,0-1.39,5.47A50.79,50.79,0,0,1,122.64,26l-1-.84-1,.84a50.73,50.73,0,0,1-11.06,6.88c-.17-.85-.36-1.7-.56-2.54s-.53-2-.84-2.93A45.76,45.76,0,0,0,121.61,17.36ZM99.85,30.43a47.15,47.15,0,0,0,5.27-1.75c.24.8.47,1.6.67,2.4.25,1,.46,2,.65,3a52.46,52.46,0,0,1-5.33,1.71A48.52,48.52,0,0,0,99.85,30.43Zm1.7,8.65A53.54,53.54,0,0,0,107,37.4a52.12,52.12,0,0,1,0,12.23c-1.77-.65-3.58-1.2-5.4-1.67.14-1.47.22-3,.22-4.44S101.69,40.54,101.55,39.08Zm-.43,12.13a52.28,52.28,0,0,1,5.32,1.71,50.14,50.14,0,0,1-1.31,5.41,44.36,44.36,0,0,0-5.26-1.74A46.66,46.66,0,0,0,101.12,51.21ZM115,63.79a45.69,45.69,0,0,0-6.89-4.13,54.58,54.58,0,0,0,1.39-5.46A51.72,51.72,0,0,1,119,59.87Q116.95,61.72,115,63.79Zm13.18,0c-.68-.74-1.39-1.46-2.1-2.16s-1.26-1.18-1.91-1.76a51.72,51.72,0,0,1,9.51-5.67,54.58,54.58,0,0,0,1.39,5.46A45.69,45.69,0,0,0,128.2,63.79Zm15.15-7.2a44.36,44.36,0,0,0-5.26,1.74,50.14,50.14,0,0,1-1.31-5.41,52.28,52.28,0,0,1,5.32-1.71A46.66,46.66,0,0,0,143.35,56.59Z"/><path class="cls-2" d="M13.55,105.1c0,3.47-3.11,5.06-6.23,5.06A15.46,15.46,0,0,1,0,107.94l.87-1.35a14.3,14.3,0,0,0,6.5,2c2.23,0,4.39-1.08,4.39-3.42,0-2.49-2.52-3.44-5.72-4.5C3.39,99.86.43,98.81.43,95.47c0-3.19,2.69-4.88,5.83-4.88a15.67,15.67,0,0,1,6.51,1.71l-.84,1.36a13.81,13.81,0,0,0-5.64-1.52c-2.09,0-4.07,1-4.07,3.23,0,2.41,2.33,3,5.1,3.93S13.55,101.44,13.55,105.1Z"/><path class="cls-2" d="M25.29,92.44v17.43H23.53V92.44h-6.1V90.89H31.36v1.55Z"/><path class="cls-2" d="M51.25,100.38c0,5.34-2.17,9.78-8.07,9.78s-8.08-4.44-8.08-9.78,2.17-9.79,8.08-9.79S51.25,95,51.25,100.38Zm-1.81,0c0-4.53-1.55-8.21-6.26-8.21s-6.24,3.68-6.24,8.21,1.52,8.21,6.24,8.21S49.44,104.93,49.44,100.38Z"/><path class="cls-2" d="M57.84,90.89H59.6v11.2L69,90.89h2.14l-7.75,9.16L72,109.87H69.87l-7.56-8.6-2.71,3.2v5.4H57.84Z"/><path class="cls-2" d="M77.22,109.87v-19H88.79v1.55H79v7.18h8.13v1.52H79v7.18H89v1.55Z"/><path class="cls-2" d="M107.38,105.1c0,3.47-3.12,5.06-6.23,5.06a15.46,15.46,0,0,1-7.32-2.22l.87-1.35a14.3,14.3,0,0,0,6.5,2c2.22,0,4.39-1.08,4.39-3.42,0-2.49-2.52-3.44-5.72-4.5-2.65-.84-5.61-1.89-5.61-5.23,0-3.19,2.69-4.88,5.83-4.88a15.67,15.67,0,0,1,6.51,1.71l-.84,1.36a13.81,13.81,0,0,0-5.64-1.52c-2.09,0-4.07,1-4.07,3.23,0,2.41,2.33,3,5.1,3.93S107.38,101.44,107.38,105.1Z"/><path class="cls-2" d="M132.21,93.41l-4.34,16.46h-2l-5.23-19h1.93l4.33,16.94,4.42-16.94h1.76l4.42,16.94,4.36-16.94h2l-5.29,19h-2Z"/><path class="cls-2" d="M159.91,104.93h-9.25l-1.84,4.94h-1.9l7.43-19h1.87l7.43,19h-1.9Zm-8.68-1.51h8.11L155.27,92.6Z"/><path class="cls-2" d="M181.13,107.51a9.49,9.49,0,0,1-6,2.65c-3.79,0-7.26-2.9-7.26-9.78s3.5-9.79,7.35-9.79c2.92,0,5.44,1.58,7.34,3l-1,1.3c-1.44-1-3.77-2.69-6.23-2.69-3.23,0-5.59,3-5.59,8.19s2.31,8.24,5.59,8.24c2.49,0,4.79-2,5.88-3v-4.45h-5.5V99.7h7.23v10.17h-1.73Z"/><path class="cls-2" d="M191.43,93.52v16.35h-1.77v-19h1.85L202,107.24V90.89h1.76v19h-1.84Z"/><path class="cls-2" d="M211.24,109.87v-19h11.57v1.55H213v7.18h8.13v1.52H213v7.18h10v1.55Z"/><path class="cls-2" d="M236.12,101.6H231v8.27h-1.77v-19h7.05c3.85,0,6.91,1.33,6.91,5.34,0,3.47-2.3,5-5.31,5.29l5.34,8.35h-2Zm.27-9.19H231v7.67h5.25c3,0,5.13-1.06,5.13-3.85S239.24,92.41,236.39,92.41Z"/><path class="cls-2" d="M50,140.12H46l-.83,2.16h-.53l3.1-7.85h.51l3.1,7.85h-.53Zm-3.8-.45h3.63L48,135Z"/><path class="cls-2" d="M57.53,134.88v7.4H57v-7.4H54.47v-.45H60.1v.45Z"/><path class="cls-2" d="M67.09,134.88v7.4h-.5v-7.4H64v-.45h5.62v.45Z"/><path class="cls-2" d="M80,138.36c0,2.2-.87,4-3.25,4s-3.22-1.85-3.22-4,.85-4.05,3.22-4.05S80,136.14,80,138.36Zm-.52,0c0-2-.66-3.6-2.73-3.6s-2.71,1.62-2.71,3.6.66,3.6,2.71,3.6S79.5,140.33,79.5,138.36Z"/><path class="cls-2" d="M88,138.76h-2.3v3.52h-.5v-7.85h2.77c1.48,0,2.79.51,2.79,2.17,0,1.48-1,2-2.26,2.15l2.28,3.53h-.59Zm.05-3.88H85.66v3.43h2.28c1.33,0,2.27-.48,2.27-1.71S89.27,134.88,88,134.88Z"/><path class="cls-2" d="M96.28,135.19v7.09h-.5v-7.85h.53l4.59,7.11v-7.11h.49v7.85h-.53Z"/><path class="cls-2" d="M106.93,142.28v-7.85h4.61v.45h-4.12v3.25h3.42v.45h-3.42v3.25h4.19v.45Z"/><path class="cls-2" d="M118.56,139.17l-2.89-4.74h.56l2.59,4.35,2.58-4.35H122l-2.91,4.76v3.09h-.49Z"/><path class="cls-2" d="M131.28,140.36c0,1.45-1.33,2-2.5,2a6.36,6.36,0,0,1-2.9-.89l.26-.4a5.88,5.88,0,0,0,2.68.84c1,0,2-.51,2-1.57s-1-1.56-2.33-2c-1.14-.35-2.4-.77-2.4-2.15a2.07,2.07,0,0,1,2.32-1.95,6.14,6.14,0,0,1,2.56.68l-.25.4a5.5,5.5,0,0,0-2.32-.63c-.93,0-1.81.45-1.81,1.48s.93,1.36,2,1.7S131.28,138.84,131.28,140.36Z"/><path class="cls-2" d="M148.42,140.12h-4l-.83,2.16h-.52l3.09-7.85h.52l3.09,7.85h-.53Zm-3.8-.45h3.64L146.44,135Z"/><path class="cls-2" d="M156,134.88v7.4h-.49v-7.4h-2.57v-.45h5.63v.45Z"/><path class="cls-2" d="M170.56,142.28v-7.85h.5v7.4h4v.45Z"/><path class="cls-2" d="M184.19,140.12h-4l-.83,2.16h-.53l3.09-7.85h.52l3.09,7.85H185Zm-3.8-.45H184L182.2,135Z"/><path class="cls-2" d="M193.92,135.13,192,142.28h-.61l-2.16-7.85h.52l1.94,7.35,1.92-7.35h.57l1.92,7.33,2-7.33h.53l-2.18,7.85h-.6Z"/><path class="cls-1" d="M213.55,151.92H29.67V124.77H213.55Zm-183.41-.48H213.08v-26.2H30.14Z"/></g></g></svg>